<svg xmlns="http://www.w3.org/2000/svg" viewBox="0 8.859999656677246 225.58999633789062 37.0099983215332" data-asc="0.9052734375" width="225.58999633789062" height="37.0099983215332"><defs/><g fill="#0c57ed"><g transform="translate(0, 0)"><path d="M0 45.26L0 9.47L25.88 9.47L25.88 13.70L4.74 13.70L4.74 24.66L24.54 24.66L24.54 28.86L4.74 28.86L4.74 41.04L26.71 41.04L26.71 45.26L0 45.26ZM33.25 45.26L33.25 9.47L45.58 9.47Q49.76 9.47 51.95 9.99Q55.03 10.69 57.20 12.55Q60.03 14.94 61.44 18.66Q62.84 22.39 62.84 27.17Q62.84 31.25 61.89 34.40Q60.94 37.55 59.45 39.61Q57.96 41.67 56.19 42.86Q54.42 44.04 51.92 44.65Q49.41 45.26 46.17 45.26L33.25 45.26M37.99 41.04L45.63 41.04Q49.17 41.04 51.18 40.38Q53.20 39.72 54.39 38.53Q56.08 36.84 57.02 34.00Q57.96 31.15 57.96 27.10Q57.96 21.48 56.12 18.47Q54.27 15.45 51.64 14.43Q49.73 13.70 45.51 13.70L37.99 13.70L37.99 41.04ZM92.85 9.47L97.58 9.47L97.58 30.15Q97.58 35.55 96.36 38.72Q95.14 41.89 91.96 43.88Q88.77 45.87 83.59 45.87Q78.56 45.87 75.37 44.14Q72.17 42.41 70.80 39.12Q69.43 35.84 69.43 30.15L69.43 9.47L74.17 9.47L74.17 30.13Q74.17 34.79 75.04 37.00Q75.90 39.21 78.02 40.41Q80.13 41.60 83.18 41.60Q88.40 41.60 90.63 39.23Q92.85 36.87 92.85 30.13L92.85 9.47ZM144.90 32.71L149.63 33.91Q148.14 39.75 144.27 42.81Q140.41 45.87 134.81 45.87Q129.03 45.87 125.40 43.52Q121.78 41.16 119.89 36.69Q117.99 32.23 117.99 27.10Q117.99 21.51 120.13 17.35Q122.27 13.18 126.21 11.02Q130.15 8.86 134.89 8.86Q140.26 8.86 143.92 11.60Q147.58 14.33 149.02 19.29L144.36 20.39Q143.12 16.48 140.75 14.70Q138.38 12.92 134.79 12.92Q130.66 12.92 127.89 14.89Q125.12 16.87 124.00 20.20Q122.88 23.54 122.88 27.08Q122.88 31.64 124.21 35.05Q125.54 38.45 128.34 40.14Q131.15 41.82 134.42 41.82Q138.40 41.82 141.16 39.53Q143.92 37.23 144.90 32.71ZM155.54 45.26L155.54 9.47L171.41 9.47Q176.20 9.47 178.69 10.44Q181.18 11.40 182.67 13.84Q184.16 16.28 184.16 19.24Q184.16 23.05 181.69 25.66Q179.22 28.27 174.07 28.98Q175.95 29.88 176.93 30.76Q179.00 32.67 180.86 35.52L187.08 45.26L181.13 45.26L176.39 37.82Q174.32 34.59 172.97 32.89Q171.63 31.18 170.57 30.49Q169.51 29.81 168.41 29.54Q167.60 29.37 165.77 29.37L160.28 29.37L160.28 45.26L155.54 45.26M160.28 25.27L170.46 25.27Q173.71 25.27 175.54 24.60Q177.37 23.93 178.32 22.45Q179.27 20.97 179.27 19.24Q179.27 16.70 177.43 15.06Q175.59 13.43 171.61 13.43L160.28 13.43L160.28 25.27ZM191.43 45.26L191.43 9.47L198.56 9.47L207.03 34.81Q208.20 38.35 208.74 40.11Q209.35 38.16 210.64 34.38L219.21 9.47L225.59 9.47L225.59 45.26L221.02 45.26L221.02 15.31L210.62 45.26L206.35 45.26L196.00 14.79L196.00 45.26L191.43 45.26Z"/></g></g></svg>