<svg viewBox="68.5 66.3206106870229 241.96368 270.68702290076334" xmlns="http://www.w3.org/2000/svg" style="max-height: 500px" width="241.96368" height="270.68702290076334">
  <g transform="translate(50, 50)">
    <path stroke-width="3" stroke="#2c3e50" fill="#a4b0be" d="M 20,50 Q 80,50 140,20 V 180 Q 80,210 20,180 V 50 Z"/>
    <path stroke-width="3" stroke="#2c3e50" fill="#a4b0be" d="M 260,50 Q 200,50 140,20 V 180 Q 200,210 260,180 V 50 Z"/>
    <path stroke-linecap="round" stroke-width="3" stroke="#2c3e50" d="M 140,180 V 210"/>
    <path stroke-width="3" stroke="#2c3e50" fill="none" d="M 20,180 Q 80,210 140,180 Q 200,210 260,180"/>
    
    <g transform="translate(50, 70)">
      <circle stroke-dasharray="10,5" stroke-width="4" stroke="#27ae60" fill="none" r="25" cy="30" cx="30"/>
      <circle fill="#27ae60" r="10" cy="30" cx="30"/>
      <circle stroke-dasharray="10,5" stroke-width="4" stroke="#8e44ad" fill="none" r="25" cy="55" cx="55"/>
      <circle fill="#8e44ad" r="10" cy="55" cx="55"/>
    </g>

    <g transform="translate(150, 60)">
      <line stroke-width="2" stroke="#2c3e50" y2="20" x2="80" y1="20" x1="20"/>
      <line stroke-width="2" stroke="#2c3e50" y2="100" x2="20" y1="20" x1="20"/>
      <line stroke-width="2" stroke="#2c3e50" y2="60" x2="80" y1="20" x1="20"/>
      <line stroke-width="2" stroke="#2c3e50" y2="100" x2="80" y1="20" x1="80"/>
      <line stroke-width="2" stroke="#2c3e50" y2="100" x2="80" y1="100" x1="20"/>
      <circle fill="#2980b9" r="5" cy="20" cx="20"/>
      <circle fill="#2980b9" r="5" cy="20" cx="80"/>
      <circle fill="#27ae60" r="5" cy="100" cx="20"/>
      <circle fill="#27ae60" r="5" cy="60" cx="80"/>
      <circle fill="#27ae60" r="5" cy="100" cx="80"/>
    </g>
    
    <text text-anchor="middle" fill="#2c3e50" font-weight="bold" font-size="28" font-family="Arial, sans-serif" y="250" x="140">KONNECTOR</text>
    <text text-anchor="middle" fill="#2c3e50" font-size="20" font-family="Arial, sans-serif" y="280" x="140">SCHOOL MANAGER</text>
  </g>

  <g transform="translate(450, 30)">
    <path stroke-width="3" stroke="#2c3e50" fill="#2980b9" d="M 50,10 L 90,30 L 50,50 L 10,30 Z"/>
    <path stroke-width="3" stroke="#2c3e50" d="M 90,30 V 50 M 50,50 V 70 M 10,30 V 50"/>
    <path stroke-width="3" stroke="#2c3e50" fill="#27ae60" d="M 50,60 L 80,75 L 50,90 L 20,75 Z"/>
    <path stroke-width="3" stroke="#2c3e50" fill="#a4b0be" d="M 20,75 V 120 Q 50,140 80,120 V 75"/>
    <circle fill="#27ae60" r="15" cy="100" cx="50"/>
    <path stroke-width="2" stroke="#2c3e50" fill="none" d="M 35,100 Q 50,80 65,100"/>
    
    <text fill="#2c3e50" font-weight="bold" font-size="28" font-family="Arial, sans-serif" y="100" x="120">KONNECTOR</text>
  </g>

  <g transform="translate(450, 220)">
    <path stroke-width="3" stroke="#2980b9" fill="#a4b0be" d="M 20,20 Q 40,0 60,20 Q 80,0 100,20 Q 120,40 100,60 Q 120,80 100,100 Q 80,120 60,100 Q 40,120 20,100 Q 0,80 20,60 Q 0,40 20,20 Z"/>
    <path stroke-width="3" stroke="#2980b9" d="M 60,40 V 80 M 40,60 H 80"/>
    
    <g transform="translate(120, 10)">
      <rect stroke-width="3" stroke="#2c3e50" fill="#f1c40f" height="80" width="60" y="0" x="0"/>
      <line stroke-width="2" stroke="#2c3e50" y2="20" x2="50" y1="20" x1="10"/>
      <line stroke-width="2" stroke="#2c3e50" y2="40" x2="50" y1="40" x1="10"/>
      <line stroke-width="2" stroke="#2c3e50" y2="60" x2="50" y1="60" x1="10"/>
    </g>
    
    <g transform="translate(80, 90) rotate(-30)">
      <rect stroke-width="2" stroke="#2c3e50" fill="#e74c3c" height="15" width="60" y="0" x="0"/>
    </g>

    <text fill="#2c3e50" font-weight="bold" font-size="28" font-family="Arial, sans-serif" y="50" x="190">KONNECTOR</text>
    <text fill="#2c3e50" font-size="20" font-family="Arial, sans-serif" y="80" x="190">MANAGER</text>
  </g>
</svg>